<svg width="24" height="24" viewBox="0 0 24 24" fill="none" xmlns="http://www.w3.org/2000/svg">
<path d="M12.0001 2.163C15.2041 2.163 15.5841 2.175 16.8501 2.233C20.1021 2.381 21.6211 3.924 21.7691 7.152C21.8271 8.417 21.8381 8.797 21.8381 12.001C21.8381 15.206 21.8261 15.585 21.7691 16.85C21.6201 20.075 20.1051 21.621 16.8501 21.769C15.5841 21.827 15.2061 21.839 12.0001 21.839C8.79606 21.839 8.41606 21.827 7.15106 21.769C3.89106 21.62 2.38006 20.07 2.23206 16.849C2.17406 15.584 2.16206 15.205 2.16206 12C2.16206 8.796 2.17506 8.417 2.23206 7.151C2.38106 3.924 3.89606 2.38 7.15106 2.232C8.41706 2.175 8.79606 2.163 12.0001 2.163ZM12.0001 0C8.74106 0 8.33306 0.014 7.05306 0.072C2.69506 0.272 0.273061 2.69 0.073061 7.052C0.014061 8.333 6.10352e-05 8.741 6.10352e-05 12C6.10352e-05 15.259 0.014061 15.668 0.072061 16.948C0.272061 21.306 2.69006 23.728 7.05206 23.928C8.33306 23.986 8.74106 24 12.0001 24C15.2591 24 15.6681 23.986 16.9481 23.928C21.3021 23.728 23.7301 21.31 23.9271 16.948C23.9861 15.668 24.0001 15.259 24.0001 12C24.0001 8.741 23.9861 8.333 23.9281 7.053C23.7321 2.699 21.3111 0.273 16.9491 0.073C15.6681 0.014 15.2591 0 12.0001 0ZM12.0001 5.838C8.59706 5.838 5.83806 8.597 5.83806 12C5.83806 15.403 8.59706 18.163 12.0001 18.163C15.4031 18.163 18.1621 15.404 18.1621 12C18.1621 8.597 15.4031 5.838 12.0001 5.838ZM12.0001 16C9.79106 16 8.00006 14.21 8.00006 12C8.00006 9.791 9.79106 8 12.0001 8C14.2091 8 16.0001 9.791 16.0001 12C16.0001 14.21 14.2091 16 12.0001 16ZM18.4061 4.155C17.6101 4.155 16.9651 4.8 16.9651 5.595C16.9651 6.39 17.6101 7.035 18.4061 7.035C19.2011 7.035 19.8451 6.39 19.8451 5.595C19.8451 4.8 19.2011 4.155 18.4061 4.155Z" fill="#1E1E1E"/>
</svg>
