<svg width="24" height="24" viewBox="0 0 24 24" fill="none" xmlns="http://www.w3.org/2000/svg">
<path d="M19.0001 0H5.00006C2.23906 0 6.10352e-05 2.239 6.10352e-05 5V19C6.10352e-05 21.761 2.23906 24 5.00006 24H19.0001C21.7621 24 24.0001 21.761 24.0001 19V5C24.0001 2.239 21.7621 0 19.0001 0ZM8.00006 19H5.00006V8H8.00006V19ZM6.50006 6.732C5.53406 6.732 4.75006 5.942 4.75006 4.968C4.75006 3.994 5.53406 3.204 6.50006 3.204C7.46606 3.204 8.25006 3.994 8.25006 4.968C8.25006 5.942 7.46706 6.732 6.50006 6.732ZM20.0001 19H17.0001V13.396C17.0001 10.028 13.0001 10.283 13.0001 13.396V19H10.0001V8H13.0001V9.765C14.3961 7.179 20.0001 6.988 20.0001 12.241V19Z" fill="#1E1E1E"/>
</svg>
